<?xml version="1.0" ?><svg viewBox="0 0 80 80" xmlns="http://www.w3.org/2000/svg"><title/><g data-name="레이어 2" id="레이어_2"><g data-name="레이어 1" id="레이어_1-2"><path d="M0,0V80H80V0ZM47.8,41a17.92,17.92,0,1,1-5.57-14,1.2,1.2,0,0,1,0,1.75l-3.21,3a1.21,1.21,0,0,1-1.64,0,11.11,11.11,0,1,0,3,11.93H31.65a1.2,1.2,0,0,1-1.2-1.2V38.1a1.2,1.2,0,0,1,1.2-1.2H47.82S47.82,40.89,47.8,41ZM68,42A1.05,1.05,0,0,1,66.95,43h-4.3v4.3a1.05,1.05,0,0,1-1.05,1.05H58a1.05,1.05,0,0,1-1.05-1.05V43h-4.3A1.05,1.05,0,0,1,51.58,42V38.35a1.05,1.05,0,0,1,1.05-1.05h4.3V33A1.05,1.05,0,0,1,58,31.94H61.6A1.05,1.05,0,0,1,62.65,33v4.3h4.3A1.05,1.05,0,0,1,68,38.35Z" fill="white"/></g></g></svg>